<?xml version="1.0" encoding="utf-8"?>
<!-- Generator: Adobe Illustrator 19.2.1, SVG Export Plug-In . SVG Version: 6.00 Build 0)  -->
<svg version="1.1" id="layer" xmlns="http://www.w3.org/2000/svg" xmlns:xlink="http://www.w3.org/1999/xlink" x="0px" y="0px"
	 viewBox="0 0 652 652" style="enable-background:new 0 0 652 652;" xml:space="preserve">
<style type="text/css">
	.st0{fill:#C8CACB;}
	.st1{fill:url(#Shape_6_);}
	.st2{fill:#939798;}
	.st3{fill:#97928D;}
	.st4{opacity:0.79;enable-background:new    ;}
	.st5{fill:url(#SVGID_1_);}
	.st6{fill:url(#SVGID_2_);}
</style>
<g id="Symbols">
	<g id="NAV-_x2F_-menu-_x2F_-menu-_x28_D_x29_" transform="translate(-20.000000, -25.000000)">
		<g id="logo_NiN-h" transform="translate(20.000000, 25.000000)">
			<g id="Group_1_">
				<g id="XMLID_2_">
					<g id="Group">
						<path id="Shape" class="st0" d="M71.2,358.3c-27.1,0-49.1-22-49.1-48.9c0-27.1,22-49.1,49.1-49.1s48.9,22,48.9,49.1
							C120.1,336.3,98.1,358.3,71.2,358.3z"/>
						
							<linearGradient id="Shape_6_" gradientUnits="userSpaceOnUse" x1="-145.6122" y1="597.1655" x2="-146.9482" y2="598.9911" gradientTransform="matrix(34.0231 0 0 -34.0231 5052.877 20664.3438)">
							<stop  offset="0" style="stop-color:#000000;stop-opacity:0.8"/>
							<stop  offset="1" style="stop-color:#000000;stop-opacity:0"/>
						</linearGradient>
						<path id="Shape_1_" class="st1" d="M71.2,358.3c-27.1,0-49.1-22-49.1-48.9c0-27.1,22-49.1,49.1-49.1s48.9,22,48.9,49.1
							C120.1,336.3,98.1,358.3,71.2,358.3z"/>
						<path id="Shape_2_" class="st2" d="M71.2,261.2c26.4,0,48.1,21.5,48.1,48.1c0,26.4-21.5,48.1-48.1,48.1
							c-26.4,0-48.1-21.5-48.1-48.1S44.6,261.2,71.2,261.2L71.2,261.2z M71.2,259.3c-27.8,0-50.1,22.3-50.1,50.1
							c0,27.6,22.3,50.1,50.1,50.1c27.6,0,50.1-22.3,50.1-50.1C121.1,281.6,98.8,259.3,71.2,259.3L71.2,259.3z"/>
					</g>
				</g>
				<g id="Shape_3_" transform="translate(0.569901, 0.569901)">
					<g transform="translate(14.817434, 10.258224)">
						<polygon class="st3" points="61.4,300.2 61.4,318.7 50.2,318.7 50.2,280.5 61.4,280.5 73.9,300.2 73.9,280.5 84.9,280.5 
							84.9,318.7 74,318.7 						"/>
						<polygon class="st4" points="61.4,300.2 61.4,318.7 50.2,318.7 50.2,280.5 61.4,280.5 73.9,300.2 73.9,280.5 84.9,280.5 
							84.9,318.7 74,318.7 						"/>
					</g>
					
						<linearGradient id="SVGID_1_" gradientUnits="userSpaceOnUse" x1="-106.8122" y1="586.3773" x2="-102.2654" y2="586.3383" gradientTransform="matrix(4.3882 0 0 -13.2787 539.5945 8095.8677)">
						<stop  offset="0" style="stop-color:#000000;stop-opacity:0.8"/>
						<stop  offset="0.7886" style="stop-color:#000000;stop-opacity:0"/>
					</linearGradient>
					<polygon class="st5" points="76.1,310.4 76.1,290.7 83.6,313.2 88.7,329 					"/>
					<g transform="translate(6.268914, 10.258224)">
						<polygon class="st3" points="46.1,300.2 46.1,318.7 35,318.7 35,280.5 46.1,280.5 58.6,300.2 58.6,280.5 69.8,280.5 
							69.8,318.7 58.8,318.7 						"/>
						<polygon class="st4" points="46.1,300.2 46.1,318.7 35,318.7 35,280.5 46.1,280.5 58.6,300.2 58.6,280.5 69.8,280.5 
							69.8,318.7 58.8,318.7 						"/>
					</g>
					
						<linearGradient id="SVGID_2_" gradientUnits="userSpaceOnUse" x1="-146.8012" y1="590.8391" x2="-146.3646" y2="588.3464" gradientTransform="matrix(31.0026 0 0 -14.9214 4608.4131 9079.9834)">
						<stop  offset="0" style="stop-color:#FFFFFF"/>
						<stop  offset="1" style="stop-color:#FFFFFF;stop-opacity:0.1"/>
					</linearGradient>
					<path class="st6" d="M58,262.3c32-8,50.6,14.9,54.5,22.8c-8.4,4.9-18.7,9.5-29.2,12.6c-22,6.7-44,7.4-60.1,3.3
						C23.8,293.8,31.6,269,58,262.3z"/>
				</g>
			</g>
			<g id="Group_2_" transform="translate(42.742599, 7.408717)">
				<path id="Shape_4_" d="M438.1,312.6c0.5-1.3,1-2.5,1.3-3.8c2.3-6.4,4.8-12.8,7.1-19.2c0.2-0.5,0.3-0.7,0.8-0.5
					c2.8,0,5.6,0,8.5,0c0,0.2,0,0.3-0.2,0.5c-4.4,11-8.9,21.8-13.5,32.8c-0.2,0.3-0.3,0.5-0.7,0.5c-2.3,0-4.8,0-7.1,0
					c-0.3,0-0.5-0.2-0.7-0.5c-4.4-11-8.9-21.8-13.3-32.8c0-0.2-0.2-0.3-0.2-0.5c0.3,0,0.7,0,0.8,0c2.6,0,5.1,0,7.7,0
					c0.5,0,0.7,0.2,0.8,0.7c2.6,7.6,5.4,14.9,8,22.5C438,312.3,438,312.4,438.1,312.6L438.1,312.6z M519.8,322.8c3,0,5.7,0,8.7,0
					c0-0.3,0-0.5,0-0.7c0-5.4,0-10.8,0-16.3c0-1,0-2,0.2-2.8c0.7-4.1,3.6-7.7,8.5-7.4c1.1,0,2.5,0.2,3.8,0.3
					c0.3-2.3,0.5-4.6,0.8-6.9c-5.7-1.1-10.7-0.2-14.1,5.3c-0.3-1.6-0.7-3.1-1-4.8c0-0.2-0.3-0.5-0.3-0.5c-2.1,0-4.4,0-6.6,0
					C519.8,300.5,519.8,311.6,519.8,322.8z M494.3,322.8c3,0,5.7,0,8.7,0c0-0.3,0-0.5,0-0.7c0-5.4,0-10.8,0-16.3c0-1,0-2,0.2-2.8
					c0.7-4.1,3.6-7.7,8.5-7.4c1.1,0,2.5,0.2,3.8,0.3c0.3-2.3,0.5-4.6,0.8-6.9c-5.7-1.1-10.7-0.2-14.1,5.3c-0.3-1.6-0.7-3.1-1-4.8
					c0-0.2-0.3-0.5-0.3-0.5c-2.1,0-4.4,0-6.6,0C494.3,300.5,494.3,311.6,494.3,322.8z M199.6,322c0-5.7,0-11.5,0-17.2
					c0-0.5,0-1,0-1.5c0.2-4.3,3.4-7.4,7.4-7.9c3.6-0.3,6.9,1.6,7.6,5.1c0.2,0.8,0.3,1.8,0.3,2.6c0,6.2,0,12.5,0,18.9
					c0,0.3,0,0.5,0,0.7c3,0,5.9,0,8.7,0c0-0.3,0-0.5,0-0.7c0-6.9,0-13.8,0-20.7c0-0.8,0-1.6-0.2-2.5c-0.7-4.3-2.8-7.6-6.9-9.4
					c-2.6-1.3-5.4-1.6-8.2-1.1c-3.1,0.3-5.7,1.5-8,3.8c-0.5,0.5-1.6,1.8-1.6,1.8l-0.5-4.8h-7.6v33.7c3,0,5.7,0,8.7,0
					C199.6,322.5,199.6,322.3,199.6,322z M213.8,275.2c1.8,0.5,3.4,1,5.3,1.5c-0.5,4.3-4.3,8.2-9.7,6.4c-1.1-0.3-2.5-1-3.6-1.5
					c-0.5-0.2-1-0.3-1.5-0.5c-1.3-0.3-2.3,0.3-2.8,1.5c-0.2,0.3-0.3,0.7-0.3,1c-1.8-0.5-3.4-1-5.3-1.5c0.5-4.3,4.1-8.2,9.7-6.4
					c1.1,0.3,2.3,1,3.4,1.3c0.2,0,0.2,0,0.3,0.2c2.3,1,3.3,0.5,4.4-1.6C213.7,275.3,213.8,275.3,213.8,275.2z M309.9,322.8
					c3,0,5.9,0,8.7,0c0-11.2,0-22.5,0-33.7c-3,0-5.7,0-8.7,0C309.9,300.5,309.9,311.6,309.9,322.8z M314.3,285.8
					c-3.1,0-5.3-2.3-5.3-5.4c0-3.1,2.3-5.3,5.4-5.1c2.8,0,5.3,2.1,5.1,5.6C319.4,283.7,317.1,285.8,314.3,285.8z M256.2,321.3
					c-1.1,0.5-2.1,0.8-3.3,1.1c-2.6,0.7-5.4,1.1-8.2,1.1c-3.3,0-6.6-0.8-9.4-2.5c-4.3-2.5-6.9-6.1-8-10.7c-1.1-5.1-0.7-10,2.1-14.4
					c1.8-3,4.4-5.1,7.6-6.4c4.3-1.6,8.5-1.8,12.8-0.3c3.9,1.3,6.6,3.9,8.5,7.6c1.8,3.6,2.1,7.4,1.8,11.3c-8.2,0-16.4,0-24.6,0
					c0.2,2,0.8,3.8,2.1,5.3c2,2.3,4.6,3.4,7.7,3.6c3,0.2,5.7-0.5,8.2-1.6L256.2,321.3z M235.7,302.8c5.4,0,10.7,0,16.1,0
					c0.3-4.1-3.3-7.9-7.7-8C239.6,294.7,235.5,298.6,235.7,302.8z M490.9,323.1c-2.6,0.5-5.1,0.8-7.6,0c-1.8-0.7-3.1-1.8-4.1-3.6
					c0-0.2-0.2-0.3-0.2-0.5c-0.7,0.5-1.3,1.1-2,1.5c-4.6,3.1-9.5,3.9-14.8,1.8c-6.9-2.8-7.9-10.3-4.9-15.1c1.3-2.1,3.4-3.4,5.7-4.3
					c2.3-0.8,4.8-1.1,7.2-1.3c2.5,0,4.9,0.2,7.4,0.7c0.2,0,0.2,0,0.3,0c0.7-4.8-2.1-7.4-6.1-7.6c-3.3-0.2-6.4,0.5-9.4,1.5l-2.5-5.9
					c0.7-0.2,1.3-0.5,2.1-0.7c3.6-1,7.4-1.5,11.2-1.3c3.6,0.2,6.9,1.3,9.5,3.9c2,2,3.3,4.4,3.3,7.4c0.2,4.8,0.2,9.5,0.2,14.3
					c0,0.3,0,0.7,0,0.8c0,1.3,1,2.1,2.1,2.1c0.7,0,1.1,0,1.8-0.2C490.5,319,490.7,321,490.9,323.1z M477.9,307.8
					c0-0.2-0.2-0.3-0.3-0.3c-1.6-0.3-7.7-1.6-11.2,1c-2.6,2-2.8,5.6-0.3,7.6c1.5,1.1,3.1,1.5,4.9,1.3c3-0.2,5.3-1.6,6.4-4.4
					C478,311.3,478,309.6,477.9,307.8z M420.9,323.1c-2.6,0.5-5.1,0.8-7.6,0c-1.8-0.7-3.1-1.8-4.1-3.6c0-0.2-0.2-0.3-0.2-0.5
					c-0.7,0.5-1.3,1.1-2,1.5c-4.6,3.1-9.5,3.9-14.8,1.8c-6.9-2.8-7.9-10.3-4.9-15.1c1.3-2.1,3.4-3.4,5.7-4.3
					c2.3-0.8,4.8-1.1,7.2-1.3c2.5,0,4.9,0.2,7.4,0.7c0.2,0,0.2,0,0.3,0c0.7-4.8-2.1-7.4-6.1-7.6c-3.3-0.2-6.4,0.5-9.4,1.5l-2.5-5.9
					c0.7-0.2,1.3-0.5,2.1-0.7c3.6-1,7.4-1.5,11.2-1.3c3.6,0.2,6.9,1.3,9.5,3.9c2,2,3.3,4.4,3.3,7.4c0.2,4.8,0.2,9.5,0.2,14.3
					c0,0.3,0,0.7,0,0.8c0,1.3,1,2.1,2.1,2.1c0.7,0,1.1,0,1.8-0.2C420.4,319,420.7,321,420.9,323.1z M407.9,307.8
					c0-0.2-0.2-0.3-0.3-0.3c-1.6-0.3-7.7-1.6-11.2,1c-2.6,2-2.8,5.6-0.3,7.6c1.5,1.1,3.1,1.5,4.9,1.3c3-0.2,5.3-1.6,6.4-4.4
					C408.1,311.3,407.9,309.6,407.9,307.8z M151.4,289.3c0,6.9,0,14,0,20.9c0,1.1,0.2,2.1,0.3,3.3c0.8,3.6,2.8,6.4,6.2,8.2
					c2.5,1.3,5.3,1.6,8,1.5c3.9-0.3,7.4-1.8,9.9-5.1c0.2-0.2,0.3-0.3,0.5-0.5c0.3,1.6,0.8,3.3,1.1,4.8c2.3,0,4.6,0,6.9,0
					c0-11.2,0-22.5,0-33.7c-3,0-5.7,0-8.7,0c0,0.3,0,0.5,0,0.8c0,5.9,0,11.7,0,17.6c0,0.8,0,1.6-0.2,2.6c-0.8,4.3-4.6,7.2-9.4,6.4
					c-3.4-0.7-5.6-3.3-5.6-6.9c0-6.6,0-13,0-19.5c0-0.2,0-0.5,0-0.7c-3,0-5.9,0-8.9,0C151.4,288.8,151.4,289.1,151.4,289.3z
					 M162.9,285.7c-0.8-1.6-1.5-3.1-2.1-4.6c0-0.2-0.2-0.2-0.2-0.3c4.4-2,8.9-4.1,13.3-6.1c0.8,2,1.8,3.9,2.6,5.9
					C172.1,282.2,167.5,283.9,162.9,285.7z M136.2,275c0,11.7,0,23.2,0,34.8c-0.2-0.2-0.2-0.3-0.3-0.3c-2.3-3.1-4.6-6.2-6.7-9.4
					c-6.1-8.2-12-16.4-18.1-24.8c-0.2-0.2-0.3-0.3-0.7-0.3c-2.8,0-5.6,0-8.4,0c-0.2,0-0.3,0-0.3,0c0,15.9,0,31.9,0,47.8
					c3,0,5.7,0,8.7,0c0-11.7,0-23.2,0-34.8c0.2,0.2,0.2,0.3,0.3,0.3c1.1,1.6,2.5,3.3,3.6,4.9c7.1,9.7,14.1,19.4,21.2,29.2
					c0.2,0.2,0.3,0.3,0.7,0.3c2.8,0,5.6,0,8.4,0c0.2,0,0.2,0,0.3,0c0-15.9,0-31.9,0-47.8C141.9,275,139.1,275,136.2,275z M372.6,275
					c0,11.7,0,23.2,0,34.8c-0.2-0.2-0.2-0.3-0.3-0.3c-2.3-3.1-4.6-6.2-6.7-9.4c-6.1-8.2-12-16.4-18.1-24.8c-0.2-0.2-0.3-0.3-0.7-0.3
					c-2.8,0-5.6,0-8.4,0c-0.2,0-0.3,0-0.3,0c0,15.9,0,31.9,0,47.8c3,0,5.7,0,8.7,0c0-11.7,0-23.2,0-34.8c0.2,0.2,0.2,0.3,0.3,0.3
					c1.1,1.6,2.5,3.3,3.6,4.9c7.1,9.7,14.1,19.4,21.2,29.2c0.2,0.2,0.3,0.3,0.7,0.3c2.8,0,5.6,0,8.4,0c0.2,0,0.2,0,0.3,0
					c0-15.9,0-31.9,0-47.8C378.5,275,375.6,275,372.6,275z M272.6,316.2c0.2-0.2,0.3-0.3,0.3-0.5c4.4-5.7,13.3-17.2,13.3-17.2
					l0.2-0.3c2-2.5,3.1-5.6,3.1-8.9l0,0h-25.9v6.7c4.9,0,9.4,0,14.4,0c-0.2,0.3-0.3,0.5-0.5,0.5c-4.6,5.9-9.2,11.8-13.8,17.9l0,0
					c-1.8,2.3-2.8,5.3-3,8.2v0.3h29.1v-6.6C284.3,316.2,278.5,316.2,272.6,316.2z M578.4,305.9L578.4,305.9
					c0,9.9-7.7,17.9-18.2,17.9s-18.2-7.9-18.2-17.6V306c0-9.9,7.7-17.7,18.2-17.7C570.7,288.1,578.4,296,578.4,305.9z M569.7,305.9
					c0-5.9-3.8-11-9.4-11c-5.7,0-9.4,4.9-9.4,10.8v0.2c0,5.9,3.8,11,9.4,11C566.1,316.9,569.7,311.9,569.7,305.9L569.7,305.9z"/>
				<g id="Shape_5_" transform="translate(39.323191, 25.075658)">
					<polygon points="176,323.5 178.6,323.5 178.6,332.7 191.1,332.7 191.1,323.5 193.7,323.5 193.7,344.5 191.1,344.5 191.1,334.8 
						178.6,334.8 178.6,344.5 176,344.5 					"/>
					<path d="M205.7,328.9c4.4,0,7.7,3.3,7.7,7.9s-3.3,7.9-7.7,7.9c-4.6,0-7.7-3.3-7.7-7.9S201.1,328.9,205.7,328.9z M205.7,342.9
						c3,0,5.3-2.5,5.3-5.9c0-3.4-2.1-5.9-5.3-5.9c-3.1,0-5.3,2.5-5.3,5.9C200.5,340.4,202.6,342.9,205.7,342.9z"/>
					<path d="M220.5,329.4h4.8v2h-4.8v8.9c0,1.6,1,2.6,2.6,2.6c0.7,0,1.3-0.2,2.1-0.3l0.3,2c-1,0.3-2.1,0.3-3,0.3
						c-2.8,0-4.6-1.8-4.6-4.4v-9.2h-3.1v-2h3.1v-4.4h2.5V329.4z"/>
					<path d="M234.6,328.9c4.1,0,6.9,3.1,6.9,7.7c0,0.3,0,0.7,0,1h-11.8c0.2,3.3,2.5,5.4,5.6,5.4c1.3,0,3-0.3,4.6-1.3l0.8,1.6
						c-2,1-3.9,1.5-5.6,1.5c-4.6,0-7.9-3.3-7.9-7.9C227.2,332.4,230.2,328.9,234.6,328.9z M229.7,336h9.4c-0.2-3-2-5.1-4.4-5.1
						C231.8,330.9,229.9,332.9,229.7,336z"/>
					<path d="M247.3,341.1c0,1.1,0.7,1.8,1.8,1.8c0.5,0,1-0.2,1.5-0.2l0.3,2c-0.8,0.2-1.6,0.3-2.3,0.3c-2.3,0-3.8-1.5-3.8-3.6v-18.9
						h2.5V341.1L247.3,341.1z"/>
					<path d="M258.8,328.9c1.6,0,3.3,0.3,5.1,1l-0.5,1.8c-1.6-0.7-3.1-1-4.4-1c-2,0-3.3,1-3.3,2.3c0,3.8,8.7,1.5,8.7,7.2
						c0,2.6-2.3,4.4-5.6,4.4c-1.8,0-3.6-0.3-5.6-1.1l0.7-1.8c1.8,0.7,3.4,1.1,4.9,1.1c2,0,3.4-1,3.4-2.5c0-3.8-8.7-1.6-8.7-7.2
						C253.2,330.7,255.5,328.9,258.8,328.9z"/>
					<polygon points="275.8,321.5 278,321.5 278,351.6 275.8,351.6 					"/>
					<path d="M291.3,323.5h8.4c3.6,0,6.2,2.3,6.2,5.4c0,2.1-1.3,3.9-3.3,4.6c2.5,0.7,3.9,2.8,3.9,5.3c0,3.4-2.6,5.7-6.4,5.7h-9v-21
						H291.3z M293.7,332.9h5.6c2.3,0,4.1-1.5,4.1-3.8c0-2.1-1.6-3.8-4.1-3.8h-5.6V332.9z M293.7,342.5h6.1c2.5,0,4.3-1.6,4.3-3.9
						s-1.8-3.9-4.3-3.9h-6.1V342.5z"/>
					<path d="M316.6,335.3c1,0,2.1,0.2,3.4,0.5v-1.6c0-2-1.5-3.3-3.8-3.3c-1.6,0-3.3,0.3-5.1,1.1l-0.7-1.8c2.1-0.8,4.1-1.1,5.9-1.1
						c3.4,0,5.7,2.1,5.7,5.3v7.4c0,0.8,0.5,1.3,1.3,1.3c0.3,0,0.7,0,0.8-0.2l0.2,1.8c-0.5,0.2-1,0.2-1.6,0.2c-1.6,0-2.8-1-3-2.5
						c-1.1,1.6-3.1,2.5-5.3,2.5c-3,0-5.3-2-5.3-4.6C309.7,337.1,312.3,335.3,316.6,335.3z M315.6,343c2.6,0,4.4-1.8,4.4-4.6v-1.3
						c-1-0.3-2.1-0.3-3.1-0.3c-3,0-4.8,1.3-4.8,3.3C312.1,341.9,313.6,343,315.6,343z"/>
					<path d="M327.4,329.4h2l0.3,2.8c0.8-2,2.5-3.1,4.8-3.1c0.5,0,1.3,0.2,2,0.3l-0.3,2c-0.7-0.2-1.1-0.2-1.8-0.2
						c-2.6,0-4.4,2.1-4.4,5.1v8.2h-2.5V329.4z"/>
					<path d="M345.3,328.9c1.8,0,3.6,0.5,5.4,1.6l-1,1.6c-1.3-1-2.6-1.3-4.1-1.3c-3.1,0-5.4,2.5-5.4,5.9s2.1,5.9,5.4,5.9
						c1.5,0,2.8-0.5,4.1-1.5l1,1.6c-1.6,1.1-3.4,1.6-5.4,1.6c-4.4,0-7.7-3.3-7.7-7.9C337.7,332.4,340.9,328.9,345.3,328.9z"/>
					<path d="M359.6,328.9c4.1,0,6.9,3.1,6.9,7.7c0,0.3,0,0.7,0,1h-11.7c0.2,3.3,2.5,5.4,5.6,5.4c1.3,0,3-0.3,4.6-1.3l0.8,1.6
						c-2,1-3.9,1.5-5.6,1.5c-4.6,0-7.9-3.3-7.9-7.9C352.4,332.4,355.3,328.9,359.6,328.9z M354.8,336h9.4c-0.2-3-2-5.1-4.4-5.1
						C357,330.9,355,332.9,354.8,336z"/>
					<path d="M372.4,341.1c0,1.1,0.7,1.8,1.8,1.8c0.5,0,1-0.2,1.5-0.2l0.3,2c-0.8,0.2-1.6,0.3-2.3,0.3c-2.3,0-3.8-1.5-3.8-3.6v-18.9
						h2.5V341.1z"/>
					<path d="M385,328.9c4.4,0,7.7,3.3,7.7,7.9s-3.3,7.9-7.7,7.9c-4.6,0-7.7-3.3-7.7-7.9S380.4,328.9,385,328.9z M385,342.9
						c3,0,5.3-2.5,5.3-5.9c0-3.4-2.1-5.9-5.3-5.9s-5.3,2.5-5.3,5.9C379.8,340.4,381.9,342.9,385,342.9z"/>
					<path d="M396.4,329.4h2l0.3,2.8c1-2,3.1-3.1,5.4-3.1c3.4,0,5.7,2.3,5.7,5.6v9.9h-2.5V335c0-2.3-1.6-3.9-3.9-3.9
						c-2.6,0-4.6,2-4.6,4.9v8.5h-2.5V329.4z"/>
					<path d="M420,335.3c1,0,2.1,0.2,3.4,0.5v-1.6c0-2-1.5-3.3-3.8-3.3c-1.6,0-3.3,0.3-5.1,1.1l-0.7-1.8c2.1-0.8,4.1-1.1,5.9-1.1
						c3.4,0,5.7,2.1,5.7,5.3v7.4c0,0.8,0.5,1.3,1.3,1.3c0.3,0,0.7,0,0.8-0.2l0.2,1.8c-0.5,0.2-1,0.2-1.6,0.2c-1.6,0-2.8-1-3-2.5
						c-1.1,1.6-3.1,2.5-5.3,2.5c-3,0-5.3-2-5.3-4.6C413.1,337.1,415.7,335.3,420,335.3z M419,343c2.6,0,4.4-1.8,4.4-4.6v-1.3
						c-1-0.3-2.1-0.3-3.1-0.3c-3,0-4.8,1.3-4.8,3.3C415.6,341.9,417.1,343,419,343z"/>
				</g>
			</g>
		</g>
	</g>
</g>
</svg>
